<svg width="32" height="22" viewBox="0 0 32 22" fill="none" xmlns="http://www.w3.org/2000/svg">
<path d="M2.4019 8.43612C2.41875 8.43612 2.43561 8.43612 2.45246 8.43612H2.46089C2.46932 8.43612 2.48617 8.43612 2.4946 8.43612C2.51988 8.43612 2.55359 8.43612 2.57888 8.43612C2.58731 8.43612 2.58731 8.43612 2.59573 8.43612C3.14353 8.4614 3.6492 8.67209 4.0453 9.0092C5.07348 9.87725 6.39663 10.3239 7.73663 10.3239H11.1751C12.9112 10.3239 14.5546 9.54857 15.6671 8.22542C16.3329 7.32366 17.3274 6.68315 18.4735 6.47246C18.4904 6.47246 18.5072 6.46403 18.5241 6.46403C18.5747 6.4556 18.6337 6.44718 18.6842 6.43875C18.7179 6.43032 18.7516 6.43032 18.7854 6.42189C18.8106 6.42189 18.8443 6.41347 18.8696 6.41347C18.9286 6.40504 18.9792 6.40504 19.0382 6.39661C19.055 6.39661 19.0719 6.39661 19.0972 6.39661C19.1562 6.39661 19.2152 6.38818 19.2742 6.38818C19.2826 6.38818 19.2826 6.38818 19.291 6.38818C19.291 6.38818 19.291 6.38818 19.2994 6.38818C19.35 6.38818 19.4006 6.38818 19.4511 6.38818C19.468 6.38818 19.4849 6.38818 19.5017 6.38818C19.527 6.38818 19.5523 6.38818 19.5776 6.38818C19.6281 6.38818 19.6787 6.39661 19.7377 6.39661C19.7545 6.39661 19.7798 6.39661 19.7967 6.40504C19.8557 6.41347 19.9062 6.42189 19.9652 6.42189C19.9821 6.42189 19.9989 6.43032 20.0158 6.43032C20.0748 6.43875 20.1254 6.44718 20.1759 6.4556C20.1928 6.4556 20.2096 6.46403 20.2349 6.46403C20.2855 6.47246 20.3361 6.48932 20.395 6.49774C20.4119 6.50617 20.4372 6.50617 20.454 6.5146C20.5046 6.53145 20.5467 6.53988 20.5973 6.55674C20.6226 6.56517 20.6479 6.57359 20.6647 6.58202C20.7069 6.59888 20.749 6.6073 20.7911 6.62416C20.8164 6.63259 20.8501 6.64101 20.8754 6.64944C20.9091 6.6663 20.9428 6.67473 20.985 6.69158C21.0187 6.70844 21.0524 6.71686 21.0777 6.73372C21.103 6.74215 21.1367 6.759 21.162 6.77586C21.2041 6.79271 21.2378 6.80957 21.2715 6.82642C21.2884 6.83485 21.3052 6.84328 21.3221 6.85171C21.3642 6.87699 21.4148 6.90227 21.4569 6.91913H21.4654C21.7519 7.07926 22.0216 7.26466 22.2576 7.48379C22.2744 7.49221 22.2829 7.50907 22.2997 7.5175C22.3334 7.54278 22.3587 7.57649 22.3924 7.60177C22.4177 7.61863 22.4346 7.64391 22.4598 7.66077C22.4851 7.68605 22.502 7.70291 22.5273 7.72819C22.5525 7.7619 22.5863 7.78718 22.6115 7.82089C22.6284 7.83775 22.6368 7.8546 22.6537 7.87146C22.6874 7.9136 22.7211 7.94731 22.7548 7.98945C22.7632 7.99788 22.7717 8.0063 22.7801 8.01473C22.8222 8.0653 22.8644 8.11586 22.8981 8.16643C23.4206 8.8575 23.7408 9.70027 23.7914 10.6105C23.9263 13.2062 21.8615 15.3553 19.2994 15.3553H19.291C19.2236 15.3553 19.1646 15.3553 19.1056 15.3468C19.0888 15.3468 19.0719 15.3468 19.055 15.3468C18.996 15.3468 18.9455 15.3384 18.8865 15.33C18.8612 15.33 18.8275 15.3216 18.8022 15.3216C18.7601 15.3131 18.7264 15.3131 18.6842 15.3047C18.6337 15.2963 18.5915 15.2878 18.541 15.2794C18.5241 15.2794 18.5072 15.271 18.4904 15.271C17.3358 15.0603 16.3413 14.4198 15.6755 13.5096C14.5546 12.1696 12.8691 11.4111 11.1077 11.4111H7.74506C6.37977 11.4111 5.07348 11.9083 4.00316 12.7595C3.58177 13.0966 3.05083 13.2989 2.46932 13.2989C1.10403 13.3579 0 12.2539 0 10.897C0 9.557 1.07032 8.46983 2.4019 8.43612Z" fill="url(#paint0_linear_1534_128)"/>
<path d="M27.1373 4.91335C26.4799 4.94706 25.8731 4.72794 25.4096 4.34027C24.3814 3.48064 23.0667 3.03397 21.7182 3.03397H19.4343H19.1394H16.8555C15.507 3.03397 14.1923 3.48064 13.1641 4.3487C12.7006 4.73637 12.0938 4.95549 11.4364 4.92178C10.1807 4.84593 9.16939 3.81775 9.11883 2.56202C9.07669 1.1546 10.1976 0 11.5881 0C12.1697 0 12.7006 0.202265 13.122 0.539373C14.1923 1.39057 15.4986 1.88781 16.8639 1.88781H19.1478H19.4428H21.7267C23.092 1.88781 24.3983 1.39057 25.4686 0.539373C25.89 0.202265 26.4209 0 27.0024 0C28.393 0 29.5139 1.1546 29.4633 2.55359C29.4043 3.80932 28.393 4.84593 27.1373 4.91335Z" fill="url(#paint1_linear_1534_128)"/>
<path d="M11.5881 16.8723C12.1697 16.8723 12.7006 17.0746 13.122 17.4117C14.1923 18.2629 15.4986 18.7601 16.8639 18.7601H19.1478H19.4428H21.7267C23.092 18.7601 24.3983 18.2629 25.4686 17.4117C25.89 17.0746 26.4209 16.8723 27.0024 16.8723C28.393 16.8723 29.5139 18.0269 29.4633 19.4259C29.4127 20.6816 28.4014 21.7098 27.1457 21.7857C26.4883 21.8194 25.8815 21.6003 25.418 21.2126C24.3898 20.3445 23.0667 19.8979 21.7267 19.8979H19.4428H19.1478H16.8639C15.5155 19.8979 14.2007 20.3445 13.1726 21.2126C12.709 21.6003 12.1022 21.8194 11.4449 21.7857C10.1891 21.7098 9.17782 20.6816 9.12726 19.4259C9.07669 18.0269 10.1976 16.8723 11.5881 16.8723Z" fill="url(#paint2_linear_1534_128)"/>
<path d="M29.4548 13.5264C30.8605 13.5264 32 12.3869 32 10.9812C32 9.57555 30.8605 8.43604 29.4548 8.43604C28.0492 8.43604 26.9097 9.57555 26.9097 10.9812C26.9097 12.3869 28.0492 13.5264 29.4548 13.5264Z" fill="url(#paint3_linear_1534_128)"/>
<defs>
<linearGradient id="paint0_linear_1534_128" x1="0" y1="10.8987" x2="23.7966" y2="10.8987" gradientUnits="userSpaceOnUse">
<stop stop-color="#4776E6"/>
<stop offset="1" stop-color="#8E54E9"/>
</linearGradient>
<linearGradient id="paint1_linear_1534_128" x1="9.12544" y1="2.46004" x2="29.4562" y2="2.46004" gradientUnits="userSpaceOnUse">
<stop stop-color="#4776E6"/>
<stop offset="1" stop-color="#8E54E9"/>
</linearGradient>
<linearGradient id="paint2_linear_1534_128" x1="9.12544" y1="19.3326" x2="29.4562" y2="19.3326" gradientUnits="userSpaceOnUse">
<stop stop-color="#4776E6"/>
<stop offset="1" stop-color="#8E54E9"/>
</linearGradient>
<linearGradient id="paint3_linear_1534_128" x1="26.9151" y1="10.9796" x2="31.9973" y2="10.9796" gradientUnits="userSpaceOnUse">
<stop stop-color="#4776E6"/>
<stop offset="1" stop-color="#8E54E9"/>
</linearGradient>
</defs>
</svg>
